<?xml version="1.0" encoding="UTF-8"?>
<svg version="1.1" xmlns="http://www.w3.org/2000/svg" width="418" height="254">
<path d="M0 0 C1.78483543 -0.00422974 1.78483543 -0.00422974 3.60572815 -0.00854492 C4.9235025 -0.00652069 6.24127686 -0.00449646 7.59898376 -0.00241089 C8.99187262 -0.00376509 10.38476111 -0.00554513 11.77764893 -0.00772095 C15.57607239 -0.01229935 19.37446884 -0.0105024 23.17289281 -0.00734186 C27.15594255 -0.00481283 31.13898996 -0.00715802 35.12203979 -0.00872803 C41.82822585 -0.0105513 48.53440093 -0.0081426 55.24058533 -0.00338745 C62.95821877 0.00202225 70.67582566 0.00031731 78.39345843 -0.00521386 C85.03401573 -0.00978043 91.67456512 -0.01037733 98.3151235 -0.00777519 C102.27384876 -0.00622749 106.23256165 -0.00597613 110.19128609 -0.00931168 C113.92999545 -0.01224088 117.66867142 -0.0101239 121.40737724 -0.00441742 C123.40577526 -0.00250245 125.40417617 -0.00540279 127.40257263 -0.00854492 C152.0167139 0.0477838 152.0167139 0.0477838 163.58311462 2.81448364 C164.32569519 2.98600952 165.06827576 3.1575354 165.83335876 3.33425903 C173.39449166 5.1787722 180.41465394 7.96967611 187.52061462 11.12698364 C188.63436462 11.62069458 189.74811462 12.11440552 190.89561462 12.62307739 C193.44690565 13.77180919 195.98829005 14.93715962 198.52061462 16.12698364 C198.52061462 16.78698364 198.52061462 17.44698364 198.52061462 18.12698364 C199.38170837 18.35256958 200.24280212 18.57815552 201.12998962 18.81057739 C205.00525928 20.31514637 207.71274231 22.46343386 210.77061462 25.18948364 C211.33562683 25.68335571 211.90063904 26.17722778 212.48277283 26.68606567 C213.62907245 27.69043324 214.77210805 28.69853921 215.91172791 29.71047974 C217.33319994 30.96197909 218.78241575 32.18181307 220.23545837 33.39651489 C227.10220825 39.24355784 232.25269384 45.84928468 237.52061462 53.12698364 C237.93093933 53.65646606 238.34126404 54.18594849 238.76402283 54.73147583 C242.3909267 59.51879285 244.76400327 64.60469094 247.08311462 70.12698364 C247.47442566 71.05180542 247.86573669 71.9766272 248.26890564 72.92947388 C254.79980205 88.71988207 257.91440492 104.73174022 257.83311462 121.81448364 C257.82820007 123.04328247 257.82328552 124.2720813 257.81822205 125.53811646 C257.69612337 135.0530468 256.86893785 143.9136026 254.52061462 153.12698364 C254.35432556 153.78521118 254.1880365 154.44343872 254.01670837 155.12161255 C250.53097755 168.50617339 244.75227352 181.18988725 236.64952087 192.42776489 C235.33648067 194.24341882 235.33648067 194.24341882 234.52061462 197.12698364 C233.03561462 198.11698364 233.03561462 198.11698364 231.52061462 199.12698364 C231.19061462 200.11698364 230.86061462 201.10698364 230.52061462 202.12698364 C229.86061462 202.12698364 229.20061462 202.12698364 228.52061462 202.12698364 C228.52061462 202.78698364 228.52061462 203.44698364 228.52061462 204.12698364 C227.12217712 205.53713989 227.12217712 205.53713989 225.14561462 207.18948364 C222.82334034 209.15168404 220.53555666 211.11286581 218.32530212 213.20120239 C207.79572918 223.14183312 196.67873722 230.69566719 183.20811462 236.06448364 C181.89580872 236.59428833 181.89580872 236.59428833 180.55699158 237.13479614 C163.57737086 243.51762953 146.74985565 244.76981333 128.74229431 244.91091919 C125.15744969 244.93938965 121.57380607 244.99466686 117.98936462 245.05471802 C104.11576727 245.25413979 90.37235721 244.93489917 76.52061462 244.12698364 C76.52061462 235.87698364 76.52061462 227.62698364 76.52061462 219.12698364 C79.41750061 219.09725464 79.41750061 219.09725464 82.37290955 219.06692505 C88.80306153 218.99874721 95.23306693 218.92194469 101.66305065 218.83945656 C105.55588511 218.78982438 109.44869667 218.74349591 113.34165955 218.70510864 C117.1089692 218.66783231 120.87607013 218.62136739 124.64319801 218.56892014 C126.06982519 218.55059814 127.49649671 218.5354114 128.92319298 218.52363968 C153.03778184 218.31782704 176.5554012 212.58493157 195.52061462 197.12698364 C196.17030212 196.61651489 196.81998962 196.10604614 197.48936462 195.58010864 C200.4486324 193.2311691 200.4486324 193.2311691 202.52061462 190.12698364 C203.18061462 190.12698364 203.84061462 190.12698364 204.52061462 190.12698364 C204.52061462 189.46698364 204.52061462 188.80698364 204.52061462 188.12698364 C205.68535018 186.96224808 206.85337281 185.80064495 208.03623962 184.65432739 C224.60701101 167.60387578 230.94020719 143.5752365 230.88853455 120.45974731 C230.47545001 94.83088612 219.89566832 71.93427644 202.20811462 53.50198364 C182.98980014 34.89530731 158.38706247 27.0542624 132.13780212 26.92166138 C130.27782089 26.9066123 130.27782089 26.9066123 128.38026428 26.89125919 C125.04710889 26.86517463 121.71397677 26.84311639 118.38078308 26.82306671 C115.24507665 26.803339 112.10941254 26.77847872 108.97373962 26.75405884 C99.82273473 26.68574876 90.67167033 26.62560798 81.52061462 26.56448364 C61.06061462 26.42010864 40.60061462 26.27573364 19.52061462 26.12698364 C19.52061462 73.31698364 19.52061462 120.50698364 19.52061462 169.12698364 C13.52061462 169.12698364 13.52061462 169.12698364 10.91514587 167.03713989 C10.06307556 166.09741333 9.21100525 165.15768677 8.33311462 164.18948364 C7.37787141 163.16842966 6.41812534 162.15157204 5.45420837 161.13870239 C4.96935974 160.62871704 4.48451111 160.11873169 3.98497009 159.59329224 C1.76884457 157.37421089 -0.64837624 155.44819004 -3.10438538 153.50198364 C-7.48956654 150.01377135 -11.38253181 146.27320936 -15.28407288 142.25979614 C-18.11439082 139.51005664 -21.15995099 137.16123552 -24.33876038 134.83010864 C-26.92341942 132.77370108 -29.15990853 130.47785191 -31.47938538 128.12698364 C-33.40772774 126.32365106 -35.34162646 124.53112307 -37.29188538 122.75198364 C-38.08562561 122.02591919 -38.08562561 122.02591919 -38.895401 121.28518677 C-42.34338251 118.1395861 -45.83614043 115.05203839 -49.36219788 111.99417114 C-52.58672096 109.15040355 -55.74350956 106.2332604 -58.90809631 103.32327271 C-64.97226661 97.7488272 -71.06610391 92.20842792 -77.29188538 86.81448364 C-80.29050842 84.20882531 -83.20807922 81.52797429 -86.11219788 78.81838989 C-91.57993891 73.71940348 -97.14802231 68.84513324 -102.97547913 64.15432739 C-107.41805022 60.55730025 -111.74831082 56.86098726 -115.78797913 52.81448364 C-118.84775086 49.7591528 -121.991658 46.8112821 -125.16688538 43.87698364 C-125.74760803 43.33557739 -126.32833069 42.79417114 -126.926651 42.23635864 C-129.9651671 39.35414119 -129.9651671 39.35414119 -133.47938538 37.12698364 C-133.80938538 97.18698364 -134.13938538 157.24698364 -134.47938538 219.12698364 C-129.19938538 219.12698364 -123.91938538 219.12698364 -118.47938538 219.12698364 C-118.47938538 175.23698364 -118.47938538 131.34698364 -118.47938538 86.12698364 C-113.03026426 87.21680786 -111.83940765 88.26123172 -107.97938538 92.00198364 C-104.61626715 95.24229137 -101.48308327 97.75293163 -97.47938538 100.12698364 C-95.95985413 101.70510864 -95.95985413 101.70510864 -94.66688538 103.37698364 C-90.98378637 107.859515 -86.6936267 112.57444444 -81.40907288 115.12698364 C-79.22991 116.25626643 -78.22831844 117.38791379 -76.72938538 119.31448364 C-74.00917033 122.60986853 -71.08159614 125.33657374 -67.82704163 128.09573364 C-66.00694617 129.67052505 -64.23490443 131.26765108 -62.47547913 132.90823364 C-61.94970276 133.39775513 -61.42392639 133.88727661 -60.88221741 134.39163208 C-59.84499298 135.36038759 -58.81066437 136.3322557 -57.77967834 137.30764771 C-54.85387078 140.03009851 -51.92164661 142.11899792 -48.47938538 144.12698364 C-47.14042905 145.78913632 -45.80808395 147.45661972 -44.47938538 149.12698364 C-42.63677578 150.84236544 -40.73288119 152.47176096 -38.81922913 154.10745239 C-36.16185852 156.40104272 -33.5704197 158.75875671 -30.97938538 161.12698364 C-25.41820274 166.19434541 -19.77393111 171.15138671 -14.07313538 176.06057739 C-12.79165328 177.16577708 -11.51041084 178.27125471 -10.22938538 179.37698364 C-9.26041321 180.21265869 -9.26041321 180.21265869 -8.27186584 181.06521606 C-3.08907993 185.55407519 1.94909669 190.17851993 6.93467712 194.88479614 C9.35899557 196.98684869 11.75012886 198.53043253 14.52061462 200.12698364 C16.23420106 201.74537083 17.89138722 203.42370045 19.52061462 205.12698364 C20.99511249 206.63157331 22.47471969 208.13116497 23.95811462 209.62698364 C24.67870056 210.35917114 25.3992865 211.09135864 26.14170837 211.84573364 C28.81238045 214.40677222 31.67804973 216.75817956 34.52061462 219.12698364 C35.01561462 132.99698364 35.01561462 132.99698364 35.52061462 45.12698364 C54.20686462 45.04448364 72.89311462 44.96198364 92.14561462 44.87698364 C98.02196716 44.84056763 103.8983197 44.80415161 109.95274353 44.76663208 C117.1893158 44.74856567 117.1893158 44.74856567 120.58882141 44.74520874 C122.93740378 44.73911044 125.28597448 44.7251345 127.63447571 44.7046814 C153.0548718 44.49457277 153.0548718 44.49457277 164.52061462 49.12698364 C165.24352692 49.40735474 165.96643921 49.68772583 166.71125793 49.97659302 C174.90198007 53.40920337 181.95808832 58.201825 188.52061462 64.12698364 C189.47194275 64.97389771 189.47194275 64.97389771 190.44248962 65.83792114 C204.55616062 79.1397438 212.96446903 98.35619989 213.75889587 117.62307739 C214.29803222 141.78419197 206.71825749 162.03961577 190.52061462 180.12698364 C189.86061462 180.12698364 189.20061462 180.12698364 188.52061462 180.12698364 C188.52061462 180.78698364 188.52061462 181.44698364 188.52061462 182.12698364 C186.5499222 183.55573565 184.58528211 184.84653535 182.52061462 186.12698364 C181.9405365 186.50983521 181.36045837 186.89268677 180.76280212 187.28713989 C176.87615715 189.81589844 172.87163352 192.08904417 168.77061462 194.25198364 C167.417099 194.96741333 167.417099 194.96741333 166.03623962 195.69729614 C155.22608087 200.09342737 144.65393842 200.594877 133.16123962 200.63870239 C131.70403123 200.65421002 130.24683605 200.67101413 128.78965759 200.68911743 C123.45012177 200.7465333 118.11034172 200.7790734 112.77061462 200.81448364 C100.80811462 200.91760864 88.84561462 201.02073364 76.52061462 201.12698364 C76.52061462 162.51698364 76.52061462 123.90698364 76.52061462 84.12698364 C84.77061462 84.12698364 93.02061462 84.12698364 101.52061462 84.12698364 C101.52061462 114.15698364 101.52061462 144.18698364 101.52061462 175.12698364 C137.6925227 175.89859146 137.6925227 175.89859146 168.52061462 162.12698364 C169.18061462 162.12698364 169.84061462 162.12698364 170.52061462 162.12698364 C170.79260681 161.53143677 171.064599 160.93588989 171.34483337 160.32229614 C172.49205422 158.18030905 173.66703992 156.75158188 175.33311462 155.00198364 C183.9521368 145.10061914 187.1607932 132.27717808 186.80577087 119.35745239 C185.45191017 104.01987971 178.85258381 92.57195378 167.54795837 82.34182739 C157.54684321 74.31218463 145.72381627 70.84585602 133.06333923 70.80813599 C132.27198578 70.79809036 131.48063232 70.78804474 130.66529846 70.7776947 C128.08452493 70.74713512 125.50385377 70.72990435 122.92295837 70.71292114 C121.1197727 70.69418751 119.31659559 70.6746125 117.51342773 70.65423584 C112.79370701 70.60314037 108.07395793 70.56339448 103.35411072 70.52609253 C98.52738054 70.48591047 93.700766 70.43488326 88.87413025 70.38479614 C79.42303987 70.28830465 69.97188386 70.20381506 60.52061462 70.12698364 C60.52614538 70.99997573 60.53167614 71.87296782 60.5373745 72.77241421 C60.66997751 94.03071381 60.76921605 115.28894195 60.83148766 136.54756832 C60.86240353 146.82817897 60.90454073 157.10851328 60.97325134 167.38894653 C61.03312276 176.35115022 61.07178026 185.31315373 61.08514559 194.27555186 C61.09295627 199.01959015 61.11126558 203.76305585 61.15499496 208.50691032 C61.19585851 212.97627506 61.20825611 217.44483386 61.19926071 221.91436768 C61.20090524 223.55060271 61.21275871 225.18686596 61.23584747 226.82293892 C61.34539891 234.98946963 61.41063234 241.73990658 56.16927528 248.49576664 C51.6884843 252.92914861 47.25651074 254.34235768 41.02061462 254.62698364 C32.09152593 254.24518813 25.50258845 249.58624262 19.52061462 243.12698364 C19.52061462 242.46698364 19.52061462 241.80698364 19.52061462 241.12698364 C18.93505798 240.86361206 18.34950134 240.60024048 17.74620056 240.32888794 C15.42205177 239.07375581 13.81453725 237.7201241 11.91123962 235.89651489 C11.238349 235.25778442 10.56545837 234.61905396 9.87217712 233.96096802 C8.83190369 232.96033325 8.83190369 232.96033325 7.77061462 231.93948364 C3.03894205 227.41920709 -1.73051468 222.97890309 -6.67567444 218.69216919 C-8.97098624 216.7003928 -11.22661239 214.66665648 -13.47938538 212.62698364 C-16.46001258 209.93714933 -19.4518377 207.26388 -22.47938538 204.62698364 C-29.10774987 198.84875006 -35.60582495 192.92529114 -42.10438538 187.00198364 C-45.85050796 183.59211891 -49.62879049 180.22719392 -53.45204163 176.90432739 C-56.68340016 174.07144082 -59.86406619 171.18254497 -63.05360413 168.30276489 C-65.11641325 166.45254801 -67.19650908 164.62753556 -69.29188538 162.81448364 C-73.55972251 159.1040783 -77.6943154 155.25180457 -81.82435608 151.38943481 C-82.35375793 150.89677124 -82.88315979 150.40410767 -83.42860413 149.89651489 C-83.89613098 149.45928101 -84.36365784 149.02204712 -84.84535217 148.57156372 C-86.99183237 146.67395079 -89.23859856 144.91159088 -91.47938538 143.12698364 C-91.48969284 144.39009872 -91.50000031 145.65321381 -91.51062012 146.9546051 C-91.60817196 158.83027309 -91.71088825 170.70588654 -91.81872463 182.58146572 C-91.87400304 188.68752125 -91.92743076 194.79358151 -91.97669983 200.89968872 C-92.02427101 206.7870777 -92.07661092 212.67440636 -92.13232613 218.56172371 C-92.15278262 220.81328908 -92.17149012 223.06487102 -92.1884594 225.31646538 C-92.21243072 228.45836277 -92.24249485 231.60014497 -92.27406311 234.74197388 C-92.27981857 235.68280319 -92.28557404 236.62363251 -92.29150391 237.5929718 C-92.36533321 244.01293148 -92.36533321 244.01293148 -93.47938538 245.12698364 C-95.38582214 245.22618435 -97.29595587 245.25497722 -99.20497131 245.25637817 C-100.43004395 245.25953033 -101.65511658 245.2626825 -102.91731262 245.26593018 C-104.2661289 245.2641396 -105.61494486 245.26208845 -106.96376038 245.25979614 C-108.3404085 245.26046951 -109.71705651 245.26143981 -111.09370422 245.26269531 C-113.98562242 245.2641727 -116.87750981 245.26201774 -119.76942444 245.25735474 C-123.46935885 245.25167875 -127.16922038 245.2549226 -130.86915207 245.2609272 C-133.71565799 245.26454996 -136.56214681 245.26338598 -139.40865326 245.26079941 C-140.77215331 245.26013377 -142.13565492 245.26094584 -143.49915314 245.26327896 C-145.41150888 245.2658312 -147.32387007 245.2612486 -149.23622131 245.25637817 C-150.86717743 245.25518478 -150.86717743 245.25518478 -152.53108215 245.25396729 C-155.29748602 245.13481806 -157.77841864 244.70090487 -160.47938538 244.12698364 C-160.54785139 215.21732383 -160.60092897 186.3076736 -160.63258136 157.39794865 C-160.6363334 153.9834081 -160.64021637 150.56886771 -160.6441803 147.15432739 C-160.64496723 146.47456571 -160.64575416 145.79480402 -160.64656494 145.0944435 C-160.65961204 134.09379498 -160.68326205 123.09319357 -160.71084376 112.09257299 C-160.73891733 100.80145483 -160.75534127 89.51036018 -160.76165086 78.21920538 C-160.76556238 71.87858807 -160.77475803 65.53807759 -160.79657555 59.19749451 C-160.81694708 53.22874797 -160.82321775 47.2601522 -160.81870842 41.29137421 C-160.81953331 39.10164826 -160.82549487 36.91191724 -160.8370018 34.72222137 C-160.85195612 31.72955686 -160.84832802 28.7374595 -160.84014893 25.74478149 C-160.84888745 24.88094801 -160.85762597 24.01711453 -160.8666293 23.12710428 C-160.82032852 16.8472916 -159.92338657 11.05423053 -155.76063538 6.06838989 C-155.17282288 5.61335083 -154.58501038 5.15831177 -153.97938538 4.68948364 C-153.39157288 4.21639771 -152.80376038 3.74331177 -152.19813538 3.25588989 C-148.70584959 0.9620931 -145.36284186 0.87606907 -141.29188538 0.75198364 C-140.20520569 0.70299927 -139.118526 0.65401489 -137.99891663 0.60354614 C-130.33557518 1.74326618 -124.87260044 7.28569532 -119.47938538 12.50198364 C-118.25100297 13.66687371 -117.02184343 14.83094486 -115.79188538 15.99417114 C-115.21438538 16.5429895 -114.63688538 17.09180786 -114.04188538 17.65725708 C-112.22831285 19.36314874 -110.3691227 21.00604516 -108.47938538 22.62698364 C-105.94729567 24.80205419 -103.49151032 27.04249815 -101.06141663 29.33010864 C-100.44202209 29.91212036 -99.82262756 30.49413208 -99.1844635 31.09378052 C-97.94900108 32.25784366 -96.71705681 33.42565533 -95.489151 34.59768677 C-92.30887183 37.59236042 -89.25955037 39.90564958 -85.47938538 42.12698364 C-83.81141663 43.85354614 -83.81141663 43.85354614 -82.29188538 45.75198364 C-78.11238267 50.70378576 -73.35883585 54.87962628 -68.47938538 59.12698364 C-67.79747131 59.72381958 -67.11555725 60.32065552 -66.41297913 60.93557739 C-65.12382349 62.06326303 -63.83345725 63.18956621 -62.54188538 64.31448364 C-59.30563461 67.15846159 -56.11529869 70.05311065 -52.91688538 72.93948364 C-50.15259279 75.42025904 -47.35828632 77.86396214 -44.55360413 80.29885864 C-41.27984824 83.18420281 -38.07878426 86.14983314 -34.87391663 89.11135864 C-32.51562513 91.21170288 -32.51562513 91.21170288 -29.67860413 92.76760864 C-28.95286194 93.21620239 -28.22711975 93.66479614 -27.47938538 94.12698364 C-27.47938538 94.78698364 -27.47938538 95.44698364 -27.47938538 96.12698364 C-26.81938538 96.12698364 -26.15938538 96.12698364 -25.47938538 96.12698364 C-23.7509291 97.75376602 -22.11683005 99.4113695 -20.47938538 101.12698364 C-19.15047205 102.48548816 -17.81685214 103.83939927 -16.47938538 105.18948364 C-15.84001038 105.84046021 -15.20063538 106.49143677 -14.54188538 107.16213989 C-12.29418606 109.30341405 -9.91229252 111.20084865 -7.47938538 113.12698364 C-7.47515344 112.55068742 -7.4709215 111.97439119 -7.46656132 111.38063145 C-7.36338809 97.3769858 -7.25470742 83.37339231 -7.14004612 69.36983585 C-7.08469906 62.59790355 -7.03121469 55.82596599 -6.98207092 49.0539856 C-6.93468319 42.52469931 -6.88216348 35.99546624 -6.82644463 29.46624565 C-6.80598653 26.96906315 -6.78727931 24.47186571 -6.77031136 21.97465706 C-6.74634357 18.49030244 -6.71627894 15.00605184 -6.68470764 11.52175903 C-6.67895218 10.47807159 -6.67319672 9.43438416 -6.66726685 8.35906982 C-6.65747803 7.41530991 -6.64768921 6.47154999 -6.63760376 5.49919128 C-6.63115121 4.67418656 -6.62469866 3.84918184 -6.61805058 2.99917698 C-6.32094949 -1.01214432 -3.3706489 0.00122171 0 0 Z " fill="#1D4D4B" transform="translate(160.47938537597656,-0.126983642578125)"/>
<path d="M0 0 C1.78483543 -0.00422974 1.78483543 -0.00422974 3.60572815 -0.00854492 C4.9235025 -0.00652069 6.24127686 -0.00449646 7.59898376 -0.00241089 C8.99187262 -0.00376509 10.38476111 -0.00554513 11.77764893 -0.00772095 C15.57607239 -0.01229935 19.37446884 -0.0105024 23.17289281 -0.00734186 C27.15594255 -0.00481283 31.13898996 -0.00715802 35.12203979 -0.00872803 C41.82822585 -0.0105513 48.53440093 -0.0081426 55.24058533 -0.00338745 C62.95821877 0.00202225 70.67582566 0.00031731 78.39345843 -0.00521386 C85.03401573 -0.00978043 91.67456512 -0.01037733 98.3151235 -0.00777519 C102.27384876 -0.00622749 106.23256165 -0.00597613 110.19128609 -0.00931168 C113.92999545 -0.01224088 117.66867142 -0.0101239 121.40737724 -0.00441742 C123.40577526 -0.00250245 125.40417617 -0.00540279 127.40257263 -0.00854492 C152.0167139 0.0477838 152.0167139 0.0477838 163.58311462 2.81448364 C164.32569519 2.98600952 165.06827576 3.1575354 165.83335876 3.33425903 C173.39449166 5.1787722 180.41465394 7.96967611 187.52061462 11.12698364 C188.63436462 11.62069458 189.74811462 12.11440552 190.89561462 12.62307739 C193.44690565 13.77180919 195.98829005 14.93715962 198.52061462 16.12698364 C198.52061462 16.78698364 198.52061462 17.44698364 198.52061462 18.12698364 C199.38170837 18.35256958 200.24280212 18.57815552 201.12998962 18.81057739 C205.00525928 20.31514637 207.71274231 22.46343386 210.77061462 25.18948364 C211.33562683 25.68335571 211.90063904 26.17722778 212.48277283 26.68606567 C213.62907245 27.69043324 214.77210805 28.69853921 215.91172791 29.71047974 C217.33319994 30.96197909 218.78241575 32.18181307 220.23545837 33.39651489 C227.10220825 39.24355784 232.25269384 45.84928468 237.52061462 53.12698364 C237.93093933 53.65646606 238.34126404 54.18594849 238.76402283 54.73147583 C242.3909267 59.51879285 244.76400327 64.60469094 247.08311462 70.12698364 C247.47442566 71.05180542 247.86573669 71.9766272 248.26890564 72.92947388 C254.79980205 88.71988207 257.91440492 104.73174022 257.83311462 121.81448364 C257.82820007 123.04328247 257.82328552 124.2720813 257.81822205 125.53811646 C257.69612337 135.0530468 256.86893785 143.9136026 254.52061462 153.12698364 C254.35432556 153.78521118 254.1880365 154.44343872 254.01670837 155.12161255 C250.53097755 168.50617339 244.75227352 181.18988725 236.64952087 192.42776489 C235.33648067 194.24341882 235.33648067 194.24341882 234.52061462 197.12698364 C233.03561462 198.11698364 233.03561462 198.11698364 231.52061462 199.12698364 C231.19061462 200.11698364 230.86061462 201.10698364 230.52061462 202.12698364 C229.86061462 202.12698364 229.20061462 202.12698364 228.52061462 202.12698364 C228.52061462 202.78698364 228.52061462 203.44698364 228.52061462 204.12698364 C227.12217712 205.53713989 227.12217712 205.53713989 225.14561462 207.18948364 C222.82334034 209.15168404 220.53555666 211.11286581 218.32530212 213.20120239 C207.79572918 223.14183312 196.67873722 230.69566719 183.20811462 236.06448364 C181.89580872 236.59428833 181.89580872 236.59428833 180.55699158 237.13479614 C163.57737086 243.51762953 146.74985565 244.76981333 128.74229431 244.91091919 C125.15744969 244.93938965 121.57380607 244.99466686 117.98936462 245.05471802 C104.11576727 245.25413979 90.37235721 244.93489917 76.52061462 244.12698364 C76.52061462 235.87698364 76.52061462 227.62698364 76.52061462 219.12698364 C79.41750061 219.09725464 79.41750061 219.09725464 82.37290955 219.06692505 C88.80306153 218.99874721 95.23306693 218.92194469 101.66305065 218.83945656 C105.55588511 218.78982438 109.44869667 218.74349591 113.34165955 218.70510864 C117.1089692 218.66783231 120.87607013 218.62136739 124.64319801 218.56892014 C126.06982519 218.55059814 127.49649671 218.5354114 128.92319298 218.52363968 C153.03778184 218.31782704 176.5554012 212.58493157 195.52061462 197.12698364 C196.17030212 196.61651489 196.81998962 196.10604614 197.48936462 195.58010864 C200.4486324 193.2311691 200.4486324 193.2311691 202.52061462 190.12698364 C203.18061462 190.12698364 203.84061462 190.12698364 204.52061462 190.12698364 C204.52061462 189.46698364 204.52061462 188.80698364 204.52061462 188.12698364 C205.68535018 186.96224808 206.85337281 185.80064495 208.03623962 184.65432739 C224.60701101 167.60387578 230.94020719 143.5752365 230.88853455 120.45974731 C230.47545001 94.83088612 219.89566832 71.93427644 202.20811462 53.50198364 C182.98980014 34.89530731 158.38706247 27.0542624 132.13780212 26.92166138 C130.27782089 26.9066123 130.27782089 26.9066123 128.38026428 26.89125919 C125.04710889 26.86517463 121.71397677 26.84311639 118.38078308 26.82306671 C115.24507665 26.803339 112.10941254 26.77847872 108.97373962 26.75405884 C99.82273473 26.68574876 90.67167033 26.62560798 81.52061462 26.56448364 C61.06061462 26.42010864 40.60061462 26.27573364 19.52061462 26.12698364 C19.52061462 73.31698364 19.52061462 120.50698364 19.52061462 169.12698364 C13.52061462 169.12698364 13.52061462 169.12698364 10.91514587 167.03713989 C10.06307556 166.09741333 9.21100525 165.15768677 8.33311462 164.18948364 C7.37787141 163.16842966 6.41812534 162.15157204 5.45420837 161.13870239 C4.96935974 160.62871704 4.48451111 160.11873169 3.98497009 159.59329224 C1.76884457 157.37421089 -0.64837624 155.44819004 -3.10438538 153.50198364 C-7.48956654 150.01377135 -11.38253181 146.27320936 -15.28407288 142.25979614 C-18.11439082 139.51005664 -21.15995099 137.16123552 -24.33876038 134.83010864 C-26.92341942 132.77370108 -29.15990853 130.47785191 -31.47938538 128.12698364 C-33.40772774 126.32365106 -35.34162646 124.53112307 -37.29188538 122.75198364 C-38.08562561 122.02591919 -38.08562561 122.02591919 -38.895401 121.28518677 C-42.34338251 118.1395861 -45.83614043 115.05203839 -49.36219788 111.99417114 C-52.58672096 109.15040355 -55.74350956 106.2332604 -58.90809631 103.32327271 C-64.97226661 97.7488272 -71.06610391 92.20842792 -77.29188538 86.81448364 C-80.29050842 84.20882531 -83.20807922 81.52797429 -86.11219788 78.81838989 C-91.57993891 73.71940348 -97.14802231 68.84513324 -102.97547913 64.15432739 C-107.41805022 60.55730025 -111.74831082 56.86098726 -115.78797913 52.81448364 C-118.84775086 49.7591528 -121.991658 46.8112821 -125.16688538 43.87698364 C-125.74760803 43.33557739 -126.32833069 42.79417114 -126.926651 42.23635864 C-129.9651671 39.35414119 -129.9651671 39.35414119 -133.47938538 37.12698364 C-133.80938538 97.18698364 -134.13938538 157.24698364 -134.47938538 219.12698364 C-129.19938538 219.12698364 -123.91938538 219.12698364 -118.47938538 219.12698364 C-118.47938538 175.23698364 -118.47938538 131.34698364 -118.47938538 86.12698364 C-113.03026426 87.21680786 -111.83940765 88.26123172 -107.97938538 92.00198364 C-104.61626715 95.24229137 -101.48308327 97.75293163 -97.47938538 100.12698364 C-95.95985413 101.70510864 -95.95985413 101.70510864 -94.66688538 103.37698364 C-90.98378637 107.859515 -86.6936267 112.57444444 -81.40907288 115.12698364 C-79.22991 116.25626643 -78.22831844 117.38791379 -76.72938538 119.31448364 C-74.00917033 122.60986853 -71.08159614 125.33657374 -67.82704163 128.09573364 C-66.00694617 129.67052505 -64.23490443 131.26765108 -62.47547913 132.90823364 C-61.94970276 133.39775513 -61.42392639 133.88727661 -60.88221741 134.39163208 C-59.84499298 135.36038759 -58.81066437 136.3322557 -57.77967834 137.30764771 C-54.85387078 140.03009851 -51.92164661 142.11899792 -48.47938538 144.12698364 C-47.14042905 145.78913632 -45.80808395 147.45661972 -44.47938538 149.12698364 C-42.63677578 150.84236544 -40.73288119 152.47176096 -38.81922913 154.10745239 C-36.16185852 156.40104272 -33.5704197 158.75875671 -30.97938538 161.12698364 C-25.41820274 166.19434541 -19.77393111 171.15138671 -14.07313538 176.06057739 C-12.79165328 177.16577708 -11.51041084 178.27125471 -10.22938538 179.37698364 C-9.26041321 180.21265869 -9.26041321 180.21265869 -8.27186584 181.06521606 C-3.08907993 185.55407519 1.94909669 190.17851993 6.93467712 194.88479614 C9.35899557 196.98684869 11.75012886 198.53043253 14.52061462 200.12698364 C16.23420106 201.74537083 17.89138722 203.42370045 19.52061462 205.12698364 C20.99511249 206.63157331 22.47471969 208.13116497 23.95811462 209.62698364 C24.67870056 210.35917114 25.3992865 211.09135864 26.14170837 211.84573364 C28.81238045 214.40677222 31.67804973 216.75817956 34.52061462 219.12698364 C35.01561462 132.99698364 35.01561462 132.99698364 35.52061462 45.12698364 C54.20686462 45.04448364 72.89311462 44.96198364 92.14561462 44.87698364 C98.02196716 44.84056763 103.8983197 44.80415161 109.95274353 44.76663208 C117.1893158 44.74856567 117.1893158 44.74856567 120.58882141 44.74520874 C122.93740378 44.73911044 125.28597448 44.7251345 127.63447571 44.7046814 C153.0548718 44.49457277 153.0548718 44.49457277 164.52061462 49.12698364 C165.24352692 49.40735474 165.96643921 49.68772583 166.71125793 49.97659302 C174.90198007 53.40920337 181.95808832 58.201825 188.52061462 64.12698364 C189.47194275 64.97389771 189.47194275 64.97389771 190.44248962 65.83792114 C204.55616062 79.1397438 212.96446903 98.35619989 213.75889587 117.62307739 C214.29803222 141.78419197 206.71825749 162.03961577 190.52061462 180.12698364 C189.86061462 180.12698364 189.20061462 180.12698364 188.52061462 180.12698364 C188.52061462 180.78698364 188.52061462 181.44698364 188.52061462 182.12698364 C186.5499222 183.55573565 184.58528211 184.84653535 182.52061462 186.12698364 C181.9405365 186.50983521 181.36045837 186.89268677 180.76280212 187.28713989 C176.87615715 189.81589844 172.87163352 192.08904417 168.77061462 194.25198364 C167.417099 194.96741333 167.417099 194.96741333 166.03623962 195.69729614 C155.22608087 200.09342737 144.65393842 200.594877 133.16123962 200.63870239 C131.70403123 200.65421002 130.24683605 200.67101413 128.78965759 200.68911743 C123.45012177 200.7465333 118.11034172 200.7790734 112.77061462 200.81448364 C100.80811462 200.91760864 88.84561462 201.02073364 76.52061462 201.12698364 C76.52061462 162.51698364 76.52061462 123.90698364 76.52061462 84.12698364 C84.77061462 84.12698364 93.02061462 84.12698364 101.52061462 84.12698364 C101.52061462 114.15698364 101.52061462 144.18698364 101.52061462 175.12698364 C137.6925227 175.89859146 137.6925227 175.89859146 168.52061462 162.12698364 C169.18061462 162.12698364 169.84061462 162.12698364 170.52061462 162.12698364 C170.79260681 161.53143677 171.064599 160.93588989 171.34483337 160.32229614 C172.49205422 158.18030905 173.66703992 156.75158188 175.33311462 155.00198364 C183.9521368 145.10061914 187.1607932 132.27717808 186.80577087 119.35745239 C185.45191017 104.01987971 178.85258381 92.57195378 167.54795837 82.34182739 C157.54684321 74.31218463 145.72381627 70.84585602 133.06333923 70.80813599 C132.27198578 70.79809036 131.48063232 70.78804474 130.66529846 70.7776947 C128.08452493 70.74713512 125.50385377 70.72990435 122.92295837 70.71292114 C121.1197727 70.69418751 119.31659559 70.6746125 117.51342773 70.65423584 C112.79370701 70.60314037 108.07395793 70.56339448 103.35411072 70.52609253 C98.52738054 70.48591047 93.700766 70.43488326 88.87413025 70.38479614 C79.42303987 70.28830465 69.97188386 70.20381506 60.52061462 70.12698364 C60.52614538 70.99997573 60.53167614 71.87296782 60.5373745 72.77241421 C60.66997751 94.03071381 60.76921605 115.28894195 60.83148766 136.54756832 C60.86240353 146.82817897 60.90454073 157.10851328 60.97325134 167.38894653 C61.03312276 176.35115022 61.07178026 185.31315373 61.08514559 194.27555186 C61.09295627 199.01959015 61.11126558 203.76305585 61.15499496 208.50691032 C61.19585851 212.97627506 61.20825611 217.44483386 61.19926071 221.91436768 C61.20090524 223.55060271 61.21275871 225.18686596 61.23584747 226.82293892 C61.34539891 234.98946963 61.41063234 241.73990658 56.16927528 248.49576664 C51.6884843 252.92914861 47.25651074 254.34235768 41.02061462 254.62698364 C32.09152593 254.24518813 25.50258845 249.58624262 19.52061462 243.12698364 C19.52061462 242.46698364 19.52061462 241.80698364 19.52061462 241.12698364 C18.93505798 240.86361206 18.34950134 240.60024048 17.74620056 240.32888794 C15.42205177 239.07375581 13.81453725 237.7201241 11.91123962 235.89651489 C11.238349 235.25778442 10.56545837 234.61905396 9.87217712 233.96096802 C8.83190369 232.96033325 8.83190369 232.96033325 7.77061462 231.93948364 C3.03894205 227.41920709 -1.73051468 222.97890309 -6.67567444 218.69216919 C-8.97098624 216.7003928 -11.22661239 214.66665648 -13.47938538 212.62698364 C-16.46001258 209.93714933 -19.4518377 207.26388 -22.47938538 204.62698364 C-29.10774987 198.84875006 -35.60582495 192.92529114 -42.10438538 187.00198364 C-45.85050796 183.59211891 -49.62879049 180.22719392 -53.45204163 176.90432739 C-56.68340016 174.07144082 -59.86406619 171.18254497 -63.05360413 168.30276489 C-65.11641325 166.45254801 -67.19650908 164.62753556 -69.29188538 162.81448364 C-73.55972251 159.1040783 -77.6943154 155.25180457 -81.82435608 151.38943481 C-82.35375793 150.89677124 -82.88315979 150.40410767 -83.42860413 149.89651489 C-83.89613098 149.45928101 -84.36365784 149.02204712 -84.84535217 148.57156372 C-86.99183237 146.67395079 -89.23859856 144.91159088 -91.47938538 143.12698364 C-91.48969284 144.39009872 -91.50000031 145.65321381 -91.51062012 146.9546051 C-91.60817196 158.83027309 -91.71088825 170.70588654 -91.81872463 182.58146572 C-91.87400304 188.68752125 -91.92743076 194.79358151 -91.97669983 200.89968872 C-92.02427101 206.7870777 -92.07661092 212.67440636 -92.13232613 218.56172371 C-92.15278262 220.81328908 -92.17149012 223.06487102 -92.1884594 225.31646538 C-92.21243072 228.45836277 -92.24249485 231.60014497 -92.27406311 234.74197388 C-92.27981857 235.68280319 -92.28557404 236.62363251 -92.29150391 237.5929718 C-92.36533321 244.01293148 -92.36533321 244.01293148 -93.47938538 245.12698364 C-95.38582214 245.22618435 -97.29595587 245.25497722 -99.20497131 245.25637817 C-100.43004395 245.25953033 -101.65511658 245.2626825 -102.91731262 245.26593018 C-104.2661289 245.2641396 -105.61494486 245.26208845 -106.96376038 245.25979614 C-108.3404085 245.26046951 -109.71705651 245.26143981 -111.09370422 245.26269531 C-113.98562242 245.2641727 -116.87750981 245.26201774 -119.76942444 245.25735474 C-123.46935885 245.25167875 -127.16922038 245.2549226 -130.86915207 245.2609272 C-133.71565799 245.26454996 -136.56214681 245.26338598 -139.40865326 245.26079941 C-140.77215331 245.26013377 -142.13565492 245.26094584 -143.49915314 245.26327896 C-145.41150888 245.2658312 -147.32387007 245.2612486 -149.23622131 245.25637817 C-150.86717743 245.25518478 -150.86717743 245.25518478 -152.53108215 245.25396729 C-155.29748602 245.13481806 -157.77841864 244.70090487 -160.47938538 244.12698364 C-160.54785139 215.21732383 -160.60092897 186.3076736 -160.63258136 157.39794865 C-160.6363334 153.9834081 -160.64021637 150.56886771 -160.6441803 147.15432739 C-160.64496723 146.47456571 -160.64575416 145.79480402 -160.64656494 145.0944435 C-160.65961204 134.09379498 -160.68326205 123.09319357 -160.71084376 112.09257299 C-160.73891733 100.80145483 -160.75534127 89.51036018 -160.76165086 78.21920538 C-160.76556238 71.87858807 -160.77475803 65.53807759 -160.79657555 59.19749451 C-160.81694708 53.22874797 -160.82321775 47.2601522 -160.81870842 41.29137421 C-160.81953331 39.10164826 -160.82549487 36.91191724 -160.8370018 34.72222137 C-160.85195612 31.72955686 -160.84832802 28.7374595 -160.84014893 25.74478149 C-160.84888745 24.88094801 -160.85762597 24.01711453 -160.8666293 23.12710428 C-160.82032852 16.8472916 -159.92338657 11.05423053 -155.76063538 6.06838989 C-155.17282288 5.61335083 -154.58501038 5.15831177 -153.97938538 4.68948364 C-153.39157288 4.21639771 -152.80376038 3.74331177 -152.19813538 3.25588989 C-148.70584959 0.9620931 -145.36284186 0.87606907 -141.29188538 0.75198364 C-140.20520569 0.70299927 -139.118526 0.65401489 -137.99891663 0.60354614 C-130.33557518 1.74326618 -124.87260044 7.28569532 -119.47938538 12.50198364 C-118.25100297 13.66687371 -117.02184343 14.83094486 -115.79188538 15.99417114 C-115.21438538 16.5429895 -114.63688538 17.09180786 -114.04188538 17.65725708 C-112.22831285 19.36314874 -110.3691227 21.00604516 -108.47938538 22.62698364 C-105.94729567 24.80205419 -103.49151032 27.04249815 -101.06141663 29.33010864 C-100.44202209 29.91212036 -99.82262756 30.49413208 -99.1844635 31.09378052 C-97.94900108 32.25784366 -96.71705681 33.42565533 -95.489151 34.59768677 C-92.30887183 37.59236042 -89.25955037 39.90564958 -85.47938538 42.12698364 C-83.81141663 43.85354614 -83.81141663 43.85354614 -82.29188538 45.75198364 C-78.11238267 50.70378576 -73.35883585 54.87962628 -68.47938538 59.12698364 C-67.79747131 59.72381958 -67.11555725 60.32065552 -66.41297913 60.93557739 C-65.12382349 62.06326303 -63.83345725 63.18956621 -62.54188538 64.31448364 C-59.30563461 67.15846159 -56.11529869 70.05311065 -52.91688538 72.93948364 C-50.15259279 75.42025904 -47.35828632 77.86396214 -44.55360413 80.29885864 C-41.27984824 83.18420281 -38.07878426 86.14983314 -34.87391663 89.11135864 C-32.51562513 91.21170288 -32.51562513 91.21170288 -29.67860413 92.76760864 C-28.95286194 93.21620239 -28.22711975 93.66479614 -27.47938538 94.12698364 C-27.47938538 94.78698364 -27.47938538 95.44698364 -27.47938538 96.12698364 C-26.81938538 96.12698364 -26.15938538 96.12698364 -25.47938538 96.12698364 C-23.7509291 97.75376602 -22.11683005 99.4113695 -20.47938538 101.12698364 C-19.15047205 102.48548816 -17.81685214 103.83939927 -16.47938538 105.18948364 C-15.84001038 105.84046021 -15.20063538 106.49143677 -14.54188538 107.16213989 C-12.29418606 109.30341405 -9.91229252 111.20084865 -7.47938538 113.12698364 C-7.47515344 112.55068742 -7.4709215 111.97439119 -7.46656132 111.38063145 C-7.36338809 97.3769858 -7.25470742 83.37339231 -7.14004612 69.36983585 C-7.08469906 62.59790355 -7.03121469 55.82596599 -6.98207092 49.0539856 C-6.93468319 42.52469931 -6.88216348 35.99546624 -6.82644463 29.46624565 C-6.80598653 26.96906315 -6.78727931 24.47186571 -6.77031136 21.97465706 C-6.74634357 18.49030244 -6.71627894 15.00605184 -6.68470764 11.52175903 C-6.67895218 10.47807159 -6.67319672 9.43438416 -6.66726685 8.35906982 C-6.65747803 7.41530991 -6.64768921 6.47154999 -6.63760376 5.49919128 C-6.63115121 4.67418656 -6.62469866 3.84918184 -6.61805058 2.99917698 C-6.32094949 -1.01214432 -3.3706489 0.00122171 0 0 Z M-156.28016663 10.50588989 C-159.1758328 14.42022691 -158.61503389 18.38304119 -158.59963989 23.06121826 C-158.60049432 23.9980606 -158.60134874 24.93490294 -158.60222906 25.90013444 C-158.60388423 29.05861497 -158.59836186 32.21704311 -158.59291077 35.3755188 C-158.59262888 37.63194274 -158.59278666 39.88836677 -158.59335327 42.14479065 C-158.59364118 48.28704629 -158.58774556 54.42928256 -158.58077931 60.57153368 C-158.57454462 66.98441502 -158.57394189 73.39729676 -158.57275391 79.81018066 C-158.56999502 90.57919719 -158.56374109 101.34820521 -158.55482483 112.11721802 C-158.54564951 123.21064213 -158.53856926 134.30406431 -158.53431702 145.39749146 C-158.53405429 146.080988 -158.53379157 146.76448454 -158.53352088 147.46869309 C-158.53221587 150.89750413 -158.53095216 154.32631518 -158.52970898 157.75512624 C-158.51933782 186.21241801 -158.50090029 214.66969798 -158.47938538 243.12698364 C-137.35938538 243.12698364 -116.23938538 243.12698364 -94.47938538 243.12698364 C-94.14938538 208.80698364 -93.81938538 174.48698364 -93.47938538 139.12698364 C-89.51938538 142.75698364 -85.55938538 146.38698364 -81.47938538 150.12698364 C-78.47705205 152.76607051 -78.47705205 152.76607051 -75.46376038 155.39260864 C-70.55403817 159.68378317 -65.7406372 164.08500472 -60.90126038 168.45510864 C-57.13637688 171.85043302 -53.36744987 175.23756707 -49.54188538 178.56448364 C-45.34496457 182.21877226 -41.24285777 185.97443338 -37.13172913 189.72463989 C-34.95477542 191.69640209 -32.76099863 193.64063702 -30.54188538 195.56448364 C-26.59349064 198.99399283 -22.75081079 202.53575188 -18.90370178 206.07766724 C-15.49321649 209.21229653 -12.03770722 212.28432209 -8.53797913 215.31838989 C-5.02496235 218.40477844 -1.58638719 221.57327142 1.86827087 224.72463989 C4.66693194 227.25950964 7.50697834 229.74029573 10.36045837 232.21292114 C12.58681216 234.18563969 14.7677446 236.20364878 16.94615173 238.22903442 C27.88407276 248.75559538 27.88407276 248.75559538 41.89561462 253.56448364 C47.83625373 252.84750996 51.82930821 249.90730618 55.89561462 245.62698364 C59.06922089 240.74451247 59.76975619 236.92382973 59.76112366 231.1098175 C59.76283251 230.41542503 59.76454136 229.72103256 59.76630199 229.00559789 C59.76958869 226.68552092 59.7586069 224.36573501 59.74766541 222.04568481 C59.74710111 220.37994392 59.7474182 218.71420252 59.74855042 217.04846191 C59.74912423 212.53026343 59.73736527 208.01217114 59.7234025 203.49399734 C59.71089992 198.77077889 59.70972501 194.047558 59.70735168 189.32432556 C59.70113553 180.38193685 59.68472286 171.43959705 59.66465271 162.49722987 C59.64229794 152.31593602 59.63130133 142.13463983 59.62126184 131.95332754 C59.60035677 111.01118561 59.56517814 90.06908771 59.52061462 69.12698364 C61.4396064 69.13849184 63.35859818 69.15000128 65.27758992 69.16151571 C66.99439613 69.17180634 68.71120247 69.18207653 70.42800891 69.19232798 C75.18293707 69.22075194 79.93786253 69.2495456 84.69278431 69.2790184 C93.63522709 69.33410651 102.5775483 69.38485344 111.52012444 69.4129715 C115.06156654 69.42810311 118.6027078 69.45944374 122.14398193 69.49655151 C123.87086557 69.51101953 125.59782393 69.51793144 127.32476807 69.51852417 C144.61147808 69.53459034 160.196592 72.16670822 173.39561462 84.43948364 C185.82783414 97.9909054 188.42177175 113.69689837 187.74278259 131.35061646 C187.27392804 137.20975272 185.3684612 141.98644033 182.52061462 147.12698364 C182.00112244 148.09764771 181.48163025 149.06831177 180.94639587 150.06838989 C173.5284976 162.77737644 161.74904017 170.78493711 147.60923767 174.70581055 C143.44566226 175.54540003 139.22712241 175.48965162 134.99327087 175.54104614 C134.11570129 175.55869019 133.23813171 175.57633423 132.33396912 175.59451294 C129.08386405 175.65715271 125.83346368 175.70363343 122.58311462 175.75198364 C111.66217712 175.93760864 111.66217712 175.93760864 100.52061462 176.12698364 C100.52061462 146.42698364 100.52061462 116.72698364 100.52061462 86.12698364 C92.93061462 86.12698364 85.34061462 86.12698364 77.52061462 86.12698364 C77.52061462 123.41698364 77.52061462 160.70698364 77.52061462 199.12698364 C88.26623962 199.18885864 99.01186462 199.25073364 110.08311462 199.31448364 C113.44442566 199.34179565 116.80573669 199.36910767 120.26890564 199.39724731 C122.97910708 199.40602177 125.68931253 199.41366343 128.39952087 199.41995239 C129.42165932 199.43171257 129.42165932 199.43171257 130.46444702 199.44371033 C152.74086629 199.68662983 172.24101217 193.93773299 188.7283783 178.51345825 C203.03841374 164.46745333 211.69333537 146.26240088 211.89170837 126.10549927 C211.89364197 124.29082153 211.89364197 124.29082153 211.89561462 122.43948364 C211.92010681 121.24903442 211.944599 120.05858521 211.96983337 118.83206177 C212.00731757 107.34315716 209.05810652 97.18615336 203.83311462 87.00198364 C203.48990173 86.33022095 203.14668884 85.65845825 202.79307556 84.96633911 C195.56811351 71.31592527 184.46024696 60.87360774 170.83311462 53.75198364 C170.25940125 53.44236694 169.68568787 53.13275024 169.09458923 52.81375122 C153.61904664 45.24578073 136.80947683 45.58072636 120.01670837 45.73635864 C117.86961789 45.74225571 115.72252161 45.74632658 113.57542419 45.74856567 C105.70289874 45.7693527 97.83049719 45.82519693 89.95811462 45.87698364 C72.32373962 45.95948364 54.68936462 46.04198364 36.52061462 46.12698364 C36.02561462 133.24698364 36.02561462 133.24698364 35.52061462 222.12698364 C31.56061462 218.49698364 27.60061462 214.86698364 23.52061462 211.12698364 C20.5172221 208.48686558 20.5172221 208.48686558 17.50108337 205.86135864 C15.20928307 203.85433826 12.9606471 201.80295513 10.70811462 199.75198364 C7.1690146 196.55045931 3.54958357 193.49552301 -0.16688538 190.50198364 C-3.89074396 187.49164761 -7.28773502 184.38369747 -10.60438538 180.93948364 C-12.9454051 178.67649791 -15.44252668 176.66750042 -17.97938538 174.62698364 C-21.8290145 171.52837357 -25.38195876 168.34612584 -28.81532288 164.79885864 C-31.20090629 162.40207531 -33.75194464 160.21777391 -36.31141663 158.00979614 C-38.72781489 155.91123045 -41.10467562 153.77258664 -43.47938538 151.62698364 C-46.46001258 148.93714933 -49.4518377 146.26388 -52.47938538 143.62698364 C-57.1964221 139.51615244 -61.83473506 135.31918704 -66.47938538 131.12698364 C-68.12508781 129.64767134 -69.77092072 128.16850418 -71.41688538 126.68948364 C-74.99178298 123.47375942 -78.55111661 120.24158455 -82.10438538 117.00198364 C-85.82734605 113.61273373 -89.58533254 110.27263611 -93.38563538 106.97073364 C-95.94357565 104.71821908 -98.46117518 102.42381272 -100.97938538 100.12698364 C-102.8121427 98.45968358 -104.64544908 96.79298681 -106.47938538 95.12698364 C-107.26313538 94.41413208 -108.04688538 93.70128052 -108.85438538 92.96682739 C-109.55563538 92.33905396 -110.25688538 91.71128052 -110.97938538 91.06448364 C-111.58782288 90.51663208 -112.19626038 89.96878052 -112.82313538 89.40432739 C-114.5660218 87.91535161 -114.5660218 87.91535161 -117.47938538 87.12698364 C-117.47938538 131.01698364 -117.47938538 174.90698364 -117.47938538 220.12698364 C-123.74938538 220.12698364 -130.01938538 220.12698364 -136.47938538 220.12698364 C-136.47938538 158.08698364 -136.47938538 96.04698364 -136.47938538 32.12698364 C-135.81938538 32.12698364 -135.15938538 32.12698364 -134.47938538 32.12698364 C-134.47938538 32.78698364 -134.47938538 33.44698364 -134.47938538 34.12698364 C-133.03255485 35.62972251 -133.03255485 35.62972251 -131.10438538 37.18948364 C-127.8499747 39.95515773 -124.64524705 42.76006557 -121.47938538 45.62698364 C-118.49875817 48.31681795 -115.50693305 50.99008728 -112.47938538 53.62698364 C-108.58148052 57.02193303 -104.74591481 60.48364249 -100.90907288 63.94729614 C-98.82332358 65.81843458 -96.72120909 67.66623195 -94.60438538 69.50198364 C-90.63685814 72.95549926 -86.77090897 76.51702304 -82.90174866 80.07962036 C-80.12479855 82.63224127 -77.32975224 85.15666569 -74.47938538 87.62698364 C-71.08887694 90.56542429 -67.77971555 93.58814666 -64.47938538 96.62698364 C-60.53223851 100.26061217 -56.55589678 103.8510988 -52.49501038 107.35745239 C-50.92502103 108.73575699 -49.37728099 110.13941977 -47.83876038 111.55276489 C-46.93641663 112.38163208 -46.03407288 113.21049927 -45.10438538 114.06448364 C-44.271651 114.83663208 -43.43891663 115.60878052 -42.58094788 116.40432739 C-40.67448716 118.33829766 -40.67448716 118.33829766 -38.47938538 118.12698364 C-38.47938538 118.78698364 -38.47938538 119.44698364 -38.47938538 120.12698364 C-36.84175818 121.58100707 -35.14204342 122.96547042 -33.41688538 124.31448364 C-29.41048975 127.51652618 -25.70575127 130.77462456 -22.14344788 134.45510864 C-19.75786446 136.85189198 -17.20682611 139.03619338 -14.64735413 141.24417114 C-12.23095587 143.34273684 -9.85409513 145.48138065 -7.47938538 147.62698364 C-3.87065865 150.88363947 -0.23670873 154.10587891 3.43858337 157.28713989 C5.02441688 158.68850496 6.58515375 160.11832576 8.13389587 161.56057739 C9.02463806 162.38686646 9.91538025 163.21315552 10.83311462 164.06448364 C11.65424744 164.83663208 12.47538025 165.60878052 13.32139587 166.40432739 C15.44863709 168.43530741 15.44863709 168.43530741 18.52061462 168.12698364 C18.52061462 120.93698364 18.52061462 73.74698364 18.52061462 25.12698364 C39.66123962 25.23010864 60.80186462 25.33323364 82.58311462 25.43948364 C92.55864563 25.47682617 92.55864563 25.47682617 102.73570251 25.5149231 C110.91990662 25.56484985 110.91990662 25.56484985 114.76351929 25.59199524 C117.42131567 25.60803933 120.0787375 25.61950343 122.73654175 25.62409973 C154.80339219 25.68793507 181.1613116 30.83730596 204.52061462 54.12698364 C205.80838806 55.3780188 205.80838806 55.3780188 207.12217712 56.65432739 C224.20818321 74.26905354 232.96418015 99.49491739 232.82115173 123.78347778 C232.13726234 149.78660856 222.15091685 173.94848618 203.52061462 192.12698364 C202.73041931 192.92620239 201.940224 193.72542114 201.12608337 194.54885864 C182.1990026 212.75401096 157.27689456 219.53319584 131.62217712 219.63870239 C130.05033513 219.65559717 128.47850624 219.67375362 126.9066925 219.69309998 C122.81997278 219.7400864 118.73330619 219.77022471 114.64640808 219.79653931 C110.45593263 219.82660788 106.26563965 219.87304592 102.07530212 219.91799927 C93.89048213 220.00344611 85.70567902 220.06953012 77.52061462 220.12698364 C77.52061462 227.71698364 77.52061462 235.30698364 77.52061462 243.12698364 C86.11038467 243.17250998 94.70005792 243.20905606 103.28991699 243.23060799 C107.28027395 243.24096162 111.27054275 243.25496295 115.260849 243.27786255 C119.12530866 243.29989635 122.98968455 243.3116152 126.85420227 243.31673813 C128.31468522 243.32037999 129.77516457 243.32748777 131.23561096 243.33844376 C145.7710548 243.44296014 159.75203443 242.35626778 173.58311462 237.50198364 C174.60896667 237.14861938 175.63481873 236.79525513 176.6917572 236.43118286 C206.16359592 225.97096466 230.89755124 203.87852103 244.72764587 175.75588989 C253.88102813 156.31280015 257.17023653 136.52259535 256.52061462 115.12698364 C256.47614197 113.57044067 256.47614197 113.57044067 256.43077087 111.98245239 C254.60916451 79.50454388 237.32291757 50.4011471 213.52061462 29.12698364 C203.12927584 20.17062466 191.00051421 14.5988365 178.52061462 9.12698364 C177.49065369 8.66163208 176.46069275 8.19628052 175.39952087 7.71682739 C156.77331241 0.07456089 135.4172616 1.71928112 115.69897866 1.82280183 C111.46165713 1.84178756 107.2243265 1.84333606 102.98696899 1.84687805 C94.9941577 1.85613513 87.00147217 1.88066132 79.00871581 1.91092652 C68.18605449 1.95100192 57.36335783 1.96697672 46.54064083 1.98443317 C29.53387156 2.01248844 12.52736745 2.07229955 -4.47938538 2.12698364 C-4.80938538 40.07698364 -5.13938538 78.02698364 -5.47938538 117.12698364 C-9.43938538 113.49698364 -13.39938538 109.86698364 -17.47938538 106.12698364 C-19.76032414 104.15080496 -22.04217452 102.18948696 -24.35438538 100.25198364 C-29.92813639 95.52988674 -35.31082743 90.63348397 -40.64198303 85.64016724 C-44.22455496 82.28538302 -47.85069459 78.99985271 -51.56532288 75.79104614 C-55.58768437 72.29405431 -59.52318104 68.69838999 -63.47938538 65.12698364 C-65.14579389 63.62669685 -66.8124589 62.12669492 -68.47938538 60.62698364 C-71.0043903 58.35527075 -73.52851841 56.0826295 -76.04969788 53.80667114 C-79.7733082 50.44745082 -83.50052057 47.0971538 -87.29188538 43.81448364 C-91.45663448 40.18820715 -95.49884194 36.43384646 -99.54969788 32.68167114 C-106.43006528 26.31214308 -113.38270751 20.02534854 -120.47547913 13.89260864 C-121.92639305 12.61422054 -123.35326532 11.30837474 -124.76454163 9.98635864 C-130.69662634 4.48011641 -135.27774354 1.60226016 -143.53407288 1.88479614 C-149.46546985 2.62324316 -152.68995581 6.12413653 -156.28016663 10.50588989 Z " fill="#323636" transform="translate(160.47938537597656,-0.126983642578125)"/>
</svg>
